<svg version="1.1" id="Layer_1" xmlns="http://www.w3.org/2000/svg" xmlns:xlink="http://www.w3.org/1999/xlink" x="0px" y="0px"
	 width="100%" viewBox="0 0 1380 547" enable-background="new 0 0 1380 547" xml:space="preserve">
<path fill="#FFFFFF" opacity="1.000000" stroke="none" 
	d="
M1031.000000,548.000000 
	C687.377808,548.000000 344.255646,548.000000 1.066732,548.000000 
	C1.066732,365.734802 1.066732,183.469589 1.066732,1.102189 
	C461.000000,1.102189 921.000000,1.102189 1380.977051,1.102189 
	C1380.977051,183.411102 1380.977051,365.705566 1380.977051,548.000000 
	C1264.469482,548.000000 1147.984741,548.000000 1031.000000,548.000000 
M1037.500000,488.287903 
	C1095.665039,488.287872 1153.830200,488.215515 1211.994995,488.334839 
	C1228.043213,488.367767 1242.871582,484.443359 1255.316650,474.355408 
	C1262.192993,468.781403 1267.469971,461.276031 1273.796265,454.970734 
	C1281.689819,447.103302 1286.476562,437.193176 1289.163574,426.999634 
	C1294.367676,407.257721 1298.457031,387.153748 1301.784302,366.997772 
	C1312.715698,300.774750 1322.774170,234.407028 1333.832153,168.205841 
	C1339.177124,136.206833 1332.077759,108.754318 1308.217041,86.257027 
	C1300.053345,78.559715 1291.218262,73.986610 1278.980469,74.015518 
	C1109.820801,74.415253 940.659790,74.273071 771.499146,74.320198 
	C762.373840,74.322739 764.343750,72.506348 761.606201,81.731033 
	C721.942200,215.386292 682.326477,349.055908 642.713013,482.726135 
	C642.221985,484.383118 641.909241,486.092957 641.393494,488.287994 
	C773.554688,488.287994 905.027344,488.287994 1037.500000,488.287903 
M630.638672,372.163666 
	C659.894287,272.393311 689.149902,172.622925 718.509583,72.497635 
	C716.410522,72.396843 715.257751,72.293053 714.104919,72.292999 
	C551.642883,72.285835 389.180847,72.278816 226.718811,72.302002 
	C215.210602,72.303642 204.426422,75.163055 194.063507,80.282242 
	C171.668091,91.345398 163.394806,111.867676 157.748474,134.038330 
	C155.581604,142.546677 154.515259,151.347443 153.156860,160.047668 
	C139.901520,244.944504 126.658066,329.843231 113.485359,414.752930 
	C109.157555,442.649414 123.709656,469.948120 148.740982,482.874786 
	C159.499344,488.430664 170.925186,487.305817 181.972031,487.333008 
	C318.439331,487.668945 454.907745,487.552216 591.375854,487.552216 
	C593.149719,487.552216 594.923645,487.552246 596.763184,487.552246 
	C608.075317,448.967407 619.222229,410.945923 630.638672,372.163666 
z"/>
<path fill="#0170C0" opacity="1.000000" stroke="none" 
	d="
M1037.000000,488.287964 
	C905.027344,488.287994 773.554688,488.287994 641.393494,488.287994 
	C641.909241,486.092957 642.221985,484.383118 642.713013,482.726135 
	C682.326477,349.055908 721.942200,215.386292 761.606201,81.731033 
	C764.343750,72.506348 762.373840,74.322739 771.499146,74.320198 
	C940.659790,74.273071 1109.820801,74.415253 1278.980469,74.015518 
	C1291.218262,73.986610 1300.053345,78.559715 1308.217041,86.257027 
	C1332.077759,108.754318 1339.177124,136.206833 1333.832153,168.205841 
	C1322.774170,234.407028 1312.715698,300.774750 1301.784302,366.997772 
	C1298.457031,387.153748 1294.367676,407.257721 1289.163574,426.999634 
	C1286.476562,437.193176 1281.689819,447.103302 1273.796265,454.970734 
	C1267.469971,461.276031 1262.192993,468.781403 1255.316650,474.355408 
	C1242.871582,484.443359 1228.043213,488.367767 1211.994995,488.334839 
	C1153.830200,488.215515 1095.665039,488.287872 1037.000000,488.287964 
M1106.500000,410.003357 
	C1114.830078,409.977539 1123.230713,410.630981 1131.474121,409.772888 
	C1145.161011,408.348267 1159.121216,407.317474 1172.302490,403.701294 
	C1207.307373,394.097961 1229.509644,370.015106 1230.550903,332.031891 
	C1231.270264,305.789215 1218.004028,282.639465 1194.584961,271.922699 
	C1189.711670,269.692657 1184.467041,268.274414 1179.279907,266.441864 
	C1179.884033,266.060638 1180.398071,265.650879 1180.977539,265.382996 
	C1201.364258,255.960175 1212.895630,240.072556 1214.427490,217.691833 
	C1216.094727,193.338440 1209.049927,172.521286 1187.260620,158.886871 
	C1170.618774,148.473450 1151.867432,145.455048 1132.745605,145.056778 
	C1106.933228,144.519165 1081.103516,144.711182 1055.281616,144.761078 
	C1044.193481,144.782486 1039.191528,149.706741 1038.375732,160.749420 
	C1038.265503,162.241882 1038.288696,163.745865 1038.288696,165.244522 
	C1038.284790,239.881088 1038.284912,314.517670 1038.286499,389.154236 
	C1038.286499,390.486847 1038.251953,391.822632 1038.327393,393.151611 
	C1038.994385,404.887756 1044.284912,409.962128 1056.019897,409.992188 
	C1072.513184,410.034454 1089.006592,410.003174 1106.500000,410.003357 
M936.255371,254.220963 
	C928.068787,250.529556 919.611633,247.328537 911.774170,243.004379 
	C904.412109,238.942490 896.825500,234.593658 890.885010,228.787903 
	C876.817261,215.039337 882.124268,192.202087 900.476196,185.035782 
	C911.580444,180.699631 923.278931,180.443558 934.343384,183.861588 
	C946.324951,187.562958 957.789795,193.027420 969.302002,198.124954 
	C976.561157,201.339279 980.120178,199.928574 980.899597,192.026352 
	C981.567749,185.251862 981.434692,178.401505 981.771973,171.590454 
	C982.316284,160.596313 976.983887,154.097061 966.966858,149.985672 
	C945.014954,140.975723 922.379272,137.952942 898.976990,141.181870 
	C882.074646,143.513962 866.450195,149.205643 852.981140,160.181885 
	C820.767578,186.433533 818.208130,247.078491 856.708801,275.350952 
	C871.068970,285.896179 887.431458,292.499329 903.306580,300.142975 
	C912.109619,304.381500 920.998535,308.878815 928.738770,314.728271 
	C933.605042,318.405884 937.962402,324.298279 939.854675,330.078766 
	C945.369141,346.924469 935.176575,363.556549 916.901672,368.807190 
	C903.117615,372.767548 889.174011,371.761108 875.406250,368.456177 
	C862.014099,365.241455 849.846008,359.164246 838.133179,352.004303 
	C830.451050,347.308289 826.125122,349.296021 824.937805,358.058899 
	C824.159424,363.803040 824.379272,369.675354 823.949524,375.475281 
	C823.007385,388.191254 828.550903,396.538788 840.121216,401.840912 
	C868.525024,414.856995 897.980652,417.990845 928.364075,411.547424 
	C966.593567,403.440063 992.294312,378.250366 996.499878,341.594696 
	C999.285889,317.311462 993.725830,295.623657 975.463257,278.235779 
	C964.296814,267.604156 950.652039,261.023010 936.255371,254.220963 
z"/>
<path fill="#6701CC" opacity="1.000000" stroke="none" 
	d="
M630.503906,372.544067 
	C619.222229,410.945923 608.075317,448.967407 596.763184,487.552246 
	C594.923645,487.552246 593.149719,487.552216 591.375854,487.552216 
	C454.907745,487.552216 318.439331,487.668945 181.972031,487.333008 
	C170.925186,487.305817 159.499344,488.430664 148.740982,482.874786 
	C123.709656,469.948120 109.157555,442.649414 113.485359,414.752930 
	C126.658066,329.843231 139.901520,244.944504 153.156860,160.047668 
	C154.515259,151.347443 155.581604,142.546677 157.748474,134.038330 
	C163.394806,111.867676 171.668091,91.345398 194.063507,80.282242 
	C204.426422,75.163055 215.210602,72.303642 226.718811,72.302002 
	C389.180847,72.278816 551.642883,72.285835 714.104919,72.292999 
	C715.257751,72.293053 716.410522,72.396843 718.509583,72.497635 
	C689.149902,172.622925 659.894287,272.393311 630.503906,372.544067 
M411.324982,244.091690 
	C436.408752,291.435120 461.443939,338.804443 486.646454,386.084534 
	C489.367065,391.188354 492.804749,395.972443 496.369019,400.547058 
	C500.160431,405.413239 505.256744,408.919495 511.540344,409.292999 
	C522.492676,409.943939 533.483032,410.352448 544.451111,410.240723 
	C558.009216,410.102661 564.830872,402.882233 564.838623,389.153351 
	C564.882629,311.167816 564.864563,233.182281 564.850952,155.196747 
	C564.849792,148.749588 562.803223,145.512527 556.359924,145.101715 
	C546.122925,144.449081 535.770386,144.375031 525.547668,145.138962 
	C517.912537,145.709549 516.036926,148.764145 516.077148,156.462616 
	C516.380432,214.447403 516.704956,272.432068 517.009827,330.416840 
	C517.016785,331.731842 516.869690,333.047607 516.869934,333.043365 
	C494.563324,290.403748 471.920044,247.064911 449.217438,203.757172 
	C442.265472,190.495483 435.046722,177.373199 428.140442,164.088150 
	C421.325104,150.978134 410.819702,144.378738 395.928589,144.684372 
	C386.601379,144.875809 377.266266,144.649048 367.935028,144.688934 
	C352.003418,144.757034 345.973267,150.852310 345.970947,166.899628 
	C345.959808,244.385269 345.964508,321.870911 345.968842,399.356537 
	C345.969208,406.459747 347.588654,409.329742 354.455811,409.795807 
	C364.849976,410.501282 375.367615,410.523254 385.756653,409.776398 
	C392.916016,409.261719 394.538666,406.409485 394.543823,399.003906 
	C394.561554,373.508636 394.728210,348.011841 394.509552,322.518463 
	C394.186676,284.867554 393.579712,247.219131 393.107330,209.569489 
	C393.090973,208.264572 393.220490,206.957825 393.303223,205.200729 
	C399.412811,218.369675 405.220306,230.887482 411.324982,244.091690 
M288.054535,266.500000 
	C288.054535,229.505798 288.057068,192.511612 288.052307,155.517410 
	C288.051392,148.431610 286.757080,146.437836 280.049469,145.103088 
	C267.334412,142.572937 254.532013,142.593460 241.826355,145.165421 
	C235.297531,146.487000 233.971634,148.501343 233.971268,155.192139 
	C233.966843,236.679306 233.966461,318.166473 233.972000,399.653656 
	C233.972427,406.114014 235.140518,408.098602 241.505997,409.398499 
	C254.354538,412.022247 267.339020,412.069794 280.195526,409.452698 
	C287.043793,408.058685 288.052643,406.264435 288.053101,398.979309 
	C288.055939,355.152863 288.054535,311.326447 288.054535,266.500000 
z"/>
<path fill="#FEFEFF" opacity="1.000000" stroke="none" 
	d="
M1106.000000,410.003357 
	C1089.006592,410.003174 1072.513184,410.034454 1056.019897,409.992188 
	C1044.284912,409.962128 1038.994385,404.887756 1038.327393,393.151611 
	C1038.251953,391.822632 1038.286499,390.486847 1038.286499,389.154236 
	C1038.284912,314.517670 1038.284790,239.881088 1038.288696,165.244522 
	C1038.288696,163.745865 1038.265503,162.241882 1038.375732,160.749420 
	C1039.191528,149.706741 1044.193481,144.782486 1055.281616,144.761078 
	C1081.103516,144.711182 1106.933228,144.519165 1132.745605,145.056778 
	C1151.867432,145.455048 1170.618774,148.473450 1187.260620,158.886871 
	C1209.049927,172.521286 1216.094727,193.338440 1214.427490,217.691833 
	C1212.895630,240.072556 1201.364258,255.960175 1180.977539,265.382996 
	C1180.398071,265.650879 1179.884033,266.060638 1179.279907,266.441864 
	C1184.467041,268.274414 1189.711670,269.692657 1194.584961,271.922699 
	C1218.004028,282.639465 1231.270264,305.789215 1230.550903,332.031891 
	C1229.509644,370.015106 1207.307373,394.097961 1172.302490,403.701294 
	C1159.121216,407.317474 1145.161011,408.348267 1131.474121,409.772888 
	C1123.230713,410.630981 1114.830078,409.977539 1106.000000,410.003357 
M1109.501709,293.242676 
	C1103.574219,293.242676 1097.646729,293.242676 1091.632080,293.242676 
	C1091.632080,318.808044 1091.632080,343.668579 1091.632080,367.909424 
	C1108.933105,367.909424 1125.907227,368.587555 1142.793457,367.661896 
	C1153.375244,367.081848 1162.563965,361.820618 1168.670410,352.611542 
	C1182.832275,331.254150 1172.272705,302.339569 1147.127075,296.326355 
	C1135.346191,293.509125 1122.735352,294.162140 1109.501709,293.242676 
M1096.679932,253.958466 
	C1108.308105,253.695724 1120.014404,254.188385 1131.546509,252.996201 
	C1149.613525,251.128387 1160.802979,237.622574 1160.854980,219.229492 
	C1160.909424,199.967560 1150.944824,187.983765 1131.588989,186.099228 
	C1118.572021,184.831863 1105.371948,185.441849 1092.253418,185.243683 
	C1092.015259,185.240067 1091.771240,185.633835 1091.564209,185.812576 
	C1091.564209,208.406250 1091.564209,230.961594 1091.564209,253.730682 
	C1093.137085,253.816650 1094.432983,253.887466 1096.679932,253.958466 
z"/>
<path fill="#FEFEFF" opacity="1.000000" stroke="none" 
	d="
M936.586060,254.402466 
	C950.652039,261.023010 964.296814,267.604156 975.463257,278.235779 
	C993.725830,295.623657 999.285889,317.311462 996.499878,341.594696 
	C992.294312,378.250366 966.593567,403.440063 928.364075,411.547424 
	C897.980652,417.990845 868.525024,414.856995 840.121216,401.840912 
	C828.550903,396.538788 823.007385,388.191254 823.949524,375.475281 
	C824.379272,369.675354 824.159424,363.803040 824.937805,358.058899 
	C826.125122,349.296021 830.451050,347.308289 838.133179,352.004303 
	C849.846008,359.164246 862.014099,365.241455 875.406250,368.456177 
	C889.174011,371.761108 903.117615,372.767548 916.901672,368.807190 
	C935.176575,363.556549 945.369141,346.924469 939.854675,330.078766 
	C937.962402,324.298279 933.605042,318.405884 928.738770,314.728271 
	C920.998535,308.878815 912.109619,304.381500 903.306580,300.142975 
	C887.431458,292.499329 871.068970,285.896179 856.708801,275.350952 
	C818.208130,247.078491 820.767578,186.433533 852.981140,160.181885 
	C866.450195,149.205643 882.074646,143.513962 898.976990,141.181870 
	C922.379272,137.952942 945.014954,140.975723 966.966858,149.985672 
	C976.983887,154.097061 982.316284,160.596313 981.771973,171.590454 
	C981.434692,178.401505 981.567749,185.251862 980.899597,192.026352 
	C980.120178,199.928574 976.561157,201.339279 969.302002,198.124954 
	C957.789795,193.027420 946.324951,187.562958 934.343384,183.861588 
	C923.278931,180.443558 911.580444,180.699631 900.476196,185.035782 
	C882.124268,192.202087 876.817261,215.039337 890.885010,228.787903 
	C896.825500,234.593658 904.412109,238.942490 911.774170,243.004379 
	C919.611633,247.328537 928.068787,250.529556 936.586060,254.402466 
z"/>
<path fill="#FEFDFF" opacity="1.000000" stroke="none" 
	d="
M411.176392,243.748489 
	C405.220306,230.887482 399.412811,218.369675 393.303223,205.200729 
	C393.220490,206.957825 393.090973,208.264572 393.107330,209.569489 
	C393.579712,247.219131 394.186676,284.867554 394.509552,322.518463 
	C394.728210,348.011841 394.561554,373.508636 394.543823,399.003906 
	C394.538666,406.409485 392.916016,409.261719 385.756653,409.776398 
	C375.367615,410.523254 364.849976,410.501282 354.455811,409.795807 
	C347.588654,409.329742 345.969208,406.459747 345.968842,399.356537 
	C345.964508,321.870911 345.959808,244.385269 345.970947,166.899628 
	C345.973267,150.852310 352.003418,144.757034 367.935028,144.688934 
	C377.266266,144.649048 386.601379,144.875809 395.928589,144.684372 
	C410.819702,144.378738 421.325104,150.978134 428.140442,164.088150 
	C435.046722,177.373199 442.265472,190.495483 449.217438,203.757172 
	C471.920044,247.064911 494.563324,290.403748 516.869934,333.043365 
	C516.869690,333.047607 517.016785,331.731842 517.009827,330.416840 
	C516.704956,272.432068 516.380432,214.447403 516.077148,156.462616 
	C516.036926,148.764145 517.912537,145.709549 525.547668,145.138962 
	C535.770386,144.375031 546.122925,144.449081 556.359924,145.101715 
	C562.803223,145.512527 564.849792,148.749588 564.850952,155.196747 
	C564.864563,233.182281 564.882629,311.167816 564.838623,389.153351 
	C564.830872,402.882233 558.009216,410.102661 544.451111,410.240723 
	C533.483032,410.352448 522.492676,409.943939 511.540344,409.292999 
	C505.256744,408.919495 500.160431,405.413239 496.369019,400.547058 
	C492.804749,395.972443 489.367065,391.188354 486.646454,386.084534 
	C461.443939,338.804443 436.408752,291.435120 411.176392,243.748489 
z"/>
<path fill="#FFFFFF" opacity="1.000000" stroke="none" 
	d="
M288.054535,267.000000 
	C288.054535,311.326447 288.055939,355.152863 288.053101,398.979309 
	C288.052643,406.264435 287.043793,408.058685 280.195526,409.452698 
	C267.339020,412.069794 254.354538,412.022247 241.505997,409.398499 
	C235.140518,408.098602 233.972427,406.114014 233.972000,399.653656 
	C233.966461,318.166473 233.966843,236.679306 233.971268,155.192139 
	C233.971634,148.501343 235.297531,146.487000 241.826355,145.165421 
	C254.532013,142.593460 267.334412,142.572937 280.049469,145.103088 
	C286.757080,146.437836 288.051392,148.431610 288.052307,155.517410 
	C288.057068,192.511612 288.054535,229.505798 288.054535,267.000000 
z"/>
<path fill="#0372C1" opacity="1.000000" stroke="none" 
	d="
M1110.001221,293.242554 
	C1122.735352,294.162140 1135.346191,293.509125 1147.127075,296.326355 
	C1172.272705,302.339569 1182.832275,331.254150 1168.670410,352.611542 
	C1162.563965,361.820618 1153.375244,367.081848 1142.793457,367.661896 
	C1125.907227,368.587555 1108.933105,367.909424 1091.632080,367.909424 
	C1091.632080,343.668579 1091.632080,318.808044 1091.632080,293.242676 
	C1097.646729,293.242676 1103.574219,293.242676 1110.001221,293.242554 
z"/>
<path fill="#0372C1" opacity="1.000000" stroke="none" 
	d="
M1096.204346,253.958374 
	C1094.432983,253.887466 1093.137085,253.816650 1091.564209,253.730682 
	C1091.564209,230.961594 1091.564209,208.406250 1091.564209,185.812576 
	C1091.771240,185.633835 1092.015259,185.240067 1092.253418,185.243683 
	C1105.371948,185.441849 1118.572021,184.831863 1131.588989,186.099228 
	C1150.944824,187.983765 1160.909424,199.967560 1160.854980,219.229492 
	C1160.802979,237.622574 1149.613525,251.128387 1131.546509,252.996201 
	C1120.014404,254.188385 1108.308105,253.695724 1096.204346,253.958374 
z"/>
</svg>